<svg width="100" height="100" viewBox="0 0 100 100" fill="none" xmlns="http://www.w3.org/2000/svg">
  <path d="M30 20 L30 65 C30 85 45 85 50 85 C45 85 30 85 30 65 L30 20" stroke="#0ea5e9" stroke-width="12" stroke-linecap="round"/>
  <path d="M15 35 L30 15 L45 35" stroke="#0ea5e9" stroke-width="12" stroke-linecap="round" stroke-linejoin="round"/>
  <path d="M70 20 L70 65 C70 85 55 85 50 85 C55 85 70 85 70 65 L70 20" stroke="#f59e0b" stroke-width="12" stroke-linecap="round"/>
  <path d="M55 35 L70 15 L85 35" stroke="#f59e0b" stroke-width="12" stroke-linecap="round" stroke-linejoin="round"/>
  <defs>
    <linearGradient id="paint0_linear" x1="30" y1="85" x2="70" y2="85" gradientUnits="userSpaceOnUse">
      <stop stop-color="#0ea5e9" />
      <stop offset="1" stop-color="#f59e0b" />
    </linearGradient>
  </defs>
  <path d="M30 65 C30 90 70 90 70 65" stroke="url(#paint0_linear)" stroke-width="12" stroke-linecap="round" opacity="0.5"/>
</svg>